HIERARCHY
ROOT pelvis
{
  OFFSET 0 100 0
  CHANNELS 6 Xposition Yposition Zposition Zrotation Xrotation Yrotation
  JOINT pelvis_right_femur
  {
    OFFSET -10.78128 -3.44521 -0.5502486
    CHANNELS 3 Zrotation Xrotation Yrotation
    JOINT right_femur_tibia
    {
      OFFSET -0.8047443 -44.0398 -0.1307829
      CHANNELS 3 Zrotation Xrotation Yrotation
      JOINT right_tibia_foot
      {
        OFFSET 3.006224 -47.83518 -5
        CHANNELS 3 Zrotation Xrotation Yrotation
        End Site
        {
          OFFSET 0 -5 15
        }
      }
    }
  }
  JOINT pelvis_left_femur
  {
    OFFSET 10.78128 -3.44521 -0.5502486
    CHANNELS 3 Zrotation Xrotation Yrotation
    JOINT left_femur_tibia
    {
      OFFSET 0.8047443 -44.0398 -0.1307829
      CHANNELS 3 Zrotation Xrotation Yrotation
      JOINT left_tibia_foot
      {
        OFFSET -4.370144 -48.10324 -4.275266
        CHANNELS 3 Zrotation Xrotation Yrotation
        End Site
        {
          OFFSET 0 -5 15
        }
      }
    }
  }
  JOINT pelvis_spine1
  {
    OFFSET 0 6.468898 -3.129235
    CHANNELS 3 Zrotation Xrotation Yrotation
    JOINT spine1
    {
      OFFSET 0 23.15396 4.99043
      CHANNELS 3 Zrotation Xrotation Yrotation
      JOINT spine2
      {
        OFFSET 0 20.79997 -5.064912
        CHANNELS 3 Zrotation Xrotation Yrotation
        JOINT neck
        {
          OFFSET 0 14.38658 9.616178
          CHANNELS 3 Zrotation Xrotation Yrotation
          End Site
          {
            OFFSET 0 20 0
          }
        }
      }
      JOINT right_manubrium
      {
        OFFSET -5.722621 16.35077 3.967754
        CHANNELS 3 Zrotation Xrotation Yrotation
        JOINT right_clavicle
        {
          OFFSET -13.16364 1.694482 -4.693211
          CHANNELS 3 Zrotation Xrotation Yrotation
          JOINT right_humerus
          {
            OFFSET -28.5034 -0.3100689 -2.792744
            CHANNELS 3 Zrotation Xrotation Yrotation
            JOINT right_radius
            {
              OFFSET -25.15693 0.02248979 -1.271978
              CHANNELS 3 Zrotation Xrotation Yrotation
              End Site
              {
                OFFSET -15 0 0
              }
            }
          }
        }
      }
      JOINT left_manubrium
      {
        OFFSET 5.722621 16.35077 3.967754
        CHANNELS 3 Zrotation Xrotation Yrotation
        JOINT left_clavicle
        {
          OFFSET 13.16364 1.694482 -4.693211
          CHANNELS 3 Zrotation Xrotation Yrotation
          JOINT left_humerus
          {
            OFFSET 29.39168 -1.063119 -2.237045
            CHANNELS 3 Zrotation Xrotation Yrotation
            JOINT left_radius
            {
              OFFSET 24.59957 -0.9528479 0.9047498
              CHANNELS 3 Zrotation Xrotation Yrotation
              End Site
              {
                OFFSET 15 -0 -0
              }
            }
          }
        }
      }
    }
  }
}
MOTION
Frames: 17
Frame Time: 0.0416666666667
855.5441 99.0962 2698.411 1.537165 -3.885076 21.13523 3.832234 17.44335 3.207281 -0 12.17242 -0 -1.816126 -17.25188 -0.1741815 2.667613 -29.07058 -2.336679 -0 17.45078 -0 -5.485418 -6.487383 18.75764 -0.8297267 0.6218385 7.712304 -0.379511 9.333093 -3.413358 1.50546 21.9261 4.992529 2.677437 -17.45751 5.414434 1.984313 -21.91158 11.16805 77.17777 26.19846 -2.600086 -0 0 24.37777 -23.03834 10.13971 15.25885 5.038227 -16.6437 -1.739015 -92.82414 22.72766 23.72524 0 0 -11.75413 -0.1841138 8.064356 14.43083
858.9138 98.19631 2704.311 1.718703 -3.508802 20.48486 2.470204 18.95258 3.378062 -0 16.77641 -0 -0.8187625 -15.00148 0.1423831 1.294862 -28.43555 -3.483388 -0 16.45266 -0 -5.15845 -6.542106 18.49388 -1.45117 -0.08502591 8.105967 -0.5246358 9.401135 -3.37684 1.673654 21.62871 5.030874 2.838077 -17.55903 5.523595 2.023589 -21.98702 10.90023 77.29632 25.8343 -2.525224 -0 0 24.77946 -23.6294 9.827687 15.54504 4.768077 -16.23258 -1.762427 -93.00817 22.60087 24.56636 0 0 -10.5355 -0.3923008 7.656643 14.95603
862.5644 97.84484 2710.536 2.473973 -3.325804 20.12735 0.8217024 19.47863 3.6659 -0 23.75353 -0 0.07163168 -10.62478 -0.03211122 -0.8305127 -26.38326 -5.044046 -0 17.98915 -0 -4.561758 -6.994092 18.16754 -2.510485 -0.7877919 8.377742 -0.6072788 9.677752 -3.399516 1.857533 21.44549 5.027928 3.009186 -17.7255 5.611028 2.305181 -21.64275 10.7882 78.01383 25.67471 -3.261035 -0 0 24.21013 -23.92113 9.540645 15.5271 4.325522 -15.86832 -1.922994 -92.91044 22.32385 24.97898 0 0 -9.452319 -0.542216 7.169869 15.20941
866.3474 98.14117 2716.894 3.517212 -3.424148 20.22436 -0.5834432 18.5313 3.996048 -0 32.75294 -0 0.7021201 -4.946507 -0.7349375 -3.056909 -23.06248 -6.485575 -0 20.20751 -0 -3.701891 -7.844564 17.85238 -3.672038 -1.285472 8.300516 -0.6451969 10.13569 -3.530472 1.928905 21.34912 5.060071 3.13025 -17.94706 5.653515 2.784346 -21.03878 10.87212 79.20599 25.63598 -4.601157 -0 0 22.89716 -23.88026 9.341584 15.29952 3.833274 -15.66228 -2.215278 -92.55107 22.01111 24.91081 0 0 -8.688007 -0.6667184 6.627524 15.22689
870.0829 99.06981 2723.13 4.441428 -3.815509 20.83738 -1.303863 15.60545 4.23955 -0 42.74126 -0 0.9224721 0.7462816 -1.881816 -4.818562 -18.652 -7.428858 -0 21.69015 -0 -2.733132 -8.998938 17.53888 -4.544493 -1.416266 7.739299 -0.6343146 10.70521 -3.883641 1.805004 21.31458 5.198839 3.174179 -18.14154 5.652403 3.388044 -20.32485 11.10203 80.71877 25.77386 -6.398753 -0 0 21.06465 -23.48908 9.313696 14.89415 3.427878 -15.81065 -2.633687 -91.86834 21.83464 24.2218 0 0 -8.550352 -0.6986183 6.167867 15.0749
873.6186 100.4806 2729.002 4.912497 -4.419194 21.88066 -1.19284 10.47989 4.303387 -0 51.86604 -0 0.6210197 5.141355 -3.280145 -5.813082 -13.44119 -7.757579 -0 21.74607 -0 -1.856961 -10.34435 17.15682 -4.848989 -1.128909 6.716887 -0.5241756 11.28258 -4.570268 1.485927 21.32823 5.453677 3.137349 -18.21917 5.619109 3.982882 -19.62018 11.37165 82.39493 26.15124 -8.553018 -0 0 18.95694 -22.76394 9.44218 14.31615 3.208944 -16.45618 -3.168099 -90.77853 21.85682 22.78302 0 0 -9.299234 -0.5060846 5.941367 14.7744
876.8744 102.0877 2734.373 4.822264 -5.067611 23.14564 -0.4716924 3.518654 4.178889 -0 57.77375 -0 -0.1715964 7.351989 -4.699505 -6.058529 -7.875116 -7.612333 -0 20.39561 -0 -1.191431 -11.81289 16.62634 -4.567956 -0.5220577 5.413838 -0.2149275 11.74056 -5.610458 1.058602 21.38483 5.749726 3.01661 -18.17824 5.570807 4.384155 -19.00155 11.57388 84.05992 26.66515 -10.93563 -0 0 16.8514 -21.78644 9.571011 13.63103 3.196653 -17.53587 -3.776383 -89.30642 21.95955 20.63132 0 0 -10.92306 -0.02670655 5.983961 14.30863
879.8482 103.5242 2739.246 4.327374 -5.538359 24.39743 0.39035 -4.270056 3.878081 -0 58.55405 -0 -1.210915 7.192151 -5.965506 -5.8285 -2.461117 -7.296843 -0 18.14039 -0 -0.7080021 -13.39342 15.91855 -3.984043 0.1891068 4.091966 0.3922618 11.94354 -6.878614 0.658524 21.48998 5.965433 2.797989 -18.1352 5.538225 4.429953 -18.4743 11.64309 85.51303 27.0398 -13.34533 -0 0 14.97514 -20.69436 9.492998 12.98802 3.32649 -18.74874 -4.366841 -87.65166 21.96881 18.02149 0 0 -13.07561 0.6156836 6.18676 13.68663
882.5834 104.4491 2743.745 3.742282 -5.639117 25.47524 0.9197361 -11.58618 3.365132 -0 53.82837 -0 -2.13985 5.151207 -6.987973 -5.488148 2.421561 -7.136713 -0 15.61725 -0 -0.3091255 -15.09769 15.08593 -3.527897 0.7758187 2.974709 1.301926 11.78348 -8.128604 0.4046627 21.66001 6.012523 2.478353 -18.23855 5.564808 4.082087 -17.95801 11.56513 86.58305 27.0214 -15.55741 -0 0 13.39301 -19.6161 9.113539 12.52231 3.503288 -19.71379 -4.823357 -86.10127 21.88349 15.30357 0 0 -15.27864 1.127693 6.405521 13.00929
885.1312 104.657 2748.046 3.345855 -5.313744 26.32511 0.8793773 -17.44229 2.609933 -0 45.08481 -0 -2.711234 2.125669 -7.726849 -5.307037 6.639903 -7.342733 -0 13.32612 -0 0.01363044 -16.91652 14.23504 -3.504631 1.103266 2.160162 2.366211 11.23762 -9.099477 0.3488295 21.90264 5.895494 2.106286 -18.53657 5.681488 3.470057 -17.3344 11.36358 87.22702 26.58954 -17.4331 -0 0 12.00777 -18.60752 8.53783 12.22493 3.681211 -20.2161 -5.064284 -84.85639 21.95373 12.74028 0 0 -17.23105 1.212449 6.603447 12.47104
887.5379 104.1287 2752.303 3.230671 -4.67291 26.97038 0.3850272 -21.58018 1.696138 -0 34.88026 -0 -2.914896 -0.9159255 -8.180923 -5.350793 10.24316 -7.929544 -0 11.57122 -0 0.1090031 -18.7911 13.45999 -3.911838 1.173929 1.625783 3.336029 10.40306 -9.639451 0.470832 22.18919 5.698785 1.789885 -18.93448 5.877363 2.826259 -16.53857 11.0811 87.55795 25.97669 -18.96827 -0 0 10.69255 -17.65815 7.997411 11.93137 3.896697 -20.32677 -5.086957 -83.95068 22.49047 10.45492 0 0 -18.93397 0.7620415 6.872884 12.27484
889.8517 103.0037 2756.632 3.290079 -3.913153 27.47094 -0.1996761 -24.39482 0.8155869 -0 25.55696 -0 -2.91708 -3.20754 -8.401994 -5.507813 13.30437 -8.733745 -0 10.55654 -0 -0.2368516 -20.59669 12.79006 -4.48613 1.087767 1.299047 3.991447 9.460487 -9.761716 0.7106967 22.45223 5.519089 1.642207 -19.28298 6.101513 2.357541 -15.61215 10.76435 87.75969 25.49664 -20.23529 -0 0 9.415527 -16.74606 7.694584 11.44888 4.221125 -20.29656 -4.9583 -83.31659 23.59708 8.517868 0 0 -20.53973 -0.07857835 7.328172 12.51781
892.1247 101.5093 2761.126 3.322486 -3.205082 27.89256 -0.5021495 -26.48902 0.1568419 -0 18.44371 -0 -2.913494 -4.355083 -8.480648 -5.60424 15.8337 -9.523294 -0 10.48073 -0 -1.140025 -22.1312 12.18994 -4.897538 0.9576059 1.11351 4.244566 8.58896 -9.600585 1.005472 22.62026 5.405954 1.707127 -19.4978 6.297092 2.153666 -14.67111 10.45524 87.98309 25.3584 -21.29961 -0 0 8.241581 -15.87284 7.703171 10.6933 4.67721 -20.34343 -4.763706 -82.88942 25.08032 7.021071 0 0 -22.11448 -1.006417 8.005073 13.13085
894.4083 99.8928 2765.869 3.156346 -2.643362 28.28435 -0.301201 -28.23226 -0.1649881 -0 13.8677 -0 -3.026635 -4.380853 -8.503256 -5.506385 17.80434 -10.1214 -0 11.56396 -0 -2.539985 -23.11626 11.60561 -4.917368 0.8428915 1.015314 4.150905 7.899241 -9.318828 1.308295 22.66333 5.349171 1.930677 -19.5991 6.435603 2.184797 -13.82814 10.18859 88.30315 25.60356 -22.18254 -0 0 7.247427 -15.05988 7.974905 9.726855 5.189013 -20.51647 -4.564198 -82.64995 26.57822 6.065926 0 0 -23.52941 -1.715797 8.854065 13.91039
896.7461 98.38538 2770.936 2.724075 -2.269091 28.66533 0.4554286 -29.57232 -0.1035515 -0 11.60495 -0 -3.291913 -3.650219 -8.519382 -5.159084 19.20012 -10.47041 -0 14.03924 -0 -4.231824 -23.22774 11.02017 -4.47429 0.7363338 0.9526207 3.850893 7.42254 -9.035622 1.58914 22.61646 5.302745 2.192592 -19.66131 6.524803 2.359151 -13.13907 9.992726 88.72759 26.15597 -22.86527 -0 0 6.453338 -14.33276 8.401612 8.705074 5.595508 -20.70074 -4.390691 -82.60758 27.75716 5.710921 0 0 -24.5153 -2.014869 9.790238 14.61614
899.1677 97.19124 2776.371 2.077975 -2.116476 29.01788 1.690119 -30.09804 0.3314395 -0 11.28225 -0 -3.697532 -2.725789 -8.535459 -4.58067 19.99944 -10.61907 -0 18.13739 -0 -5.948639 -22.17051 10.48762 -3.629018 0.5944189 0.8855391 3.495919 7.142766 -8.800513 1.828512 22.56963 5.217037 2.367234 -19.73759 6.589098 2.586559 -12.60343 9.890703 89.21518 26.89697 -23.30414 -0 0 5.822207 -13.71516 8.873376 7.800591 5.712692 -20.71331 -4.258415 -82.77442 28.44412 5.940632 0 0 -24.79388 -1.874613 10.73134 15.07613
901.6811 96.48439 2782.16 1.371963 -2.237554 29.28247 3.220611 -29.2527 1.065635 -0 12.50338 -0 -4.222758 -2.190482 -8.5215 -3.852815 20.08975 -10.65496 -0 24.0415 -0 -7.441114 -19.80722 10.12786 -2.531338 0.3881659 0.8213426 3.193626 7.04405 -8.599571 2.014151 22.62878 5.062719 2.383165 -19.81483 6.639034 2.819063 -12.20553 9.902087 89.67821 27.70643 -23.44114 -0 0 5.312538 -13.23614 9.315658 7.150373 5.420296 -20.42474 -4.171487 -83.16172 28.65867 6.674134 0 0 -24.21343 -1.423986 11.60035 15.25284
